<svg xmlns="http://www.w3.org/2000/svg" width="1200" height="720" viewBox="0 0 1200 720" role="img" aria-labelledby="title desc"><title id="title">Contact. Traction. Coverage.</title><desc id="desc">The mechanical and control questions behind waterless panel cleaning. FUNCTIONAL SCHEMATIC / Not to scale; numerical coverage and force results are modelled.</desc><defs><marker id="arrow" viewBox="0 0 10 10" refX="9" refY="5" markerWidth="7" markerHeight="7" orient="auto"><path d="M0 1L9 5L0 9" fill="none" stroke="#215ad2" stroke-width="1.5"/></marker></defs><rect width="1200" height="720" fill="#f5f7fa"/><g font-family="Arial, Helvetica, sans-serif"><text x="56" y="56" font-size="16" fill="#215ad2" font-weight="600">ROBOTICS / SPC-001</text><text x="56" y="113" font-size="42" fill="#17212b" font-weight="600">Contact. Traction. Coverage.</text><text x="56" y="151" font-size="22" fill="#56616d" font-weight="400">The mechanical and control questions behind waterless panel cleaning.</text><path d="M56 184H1144" fill="none" stroke="#cbd5df" stroke-width="1" stroke-linecap="round" stroke-linejoin="round"/><rect x="56" y="220" width="625" height="385" rx="8" fill="#fff" stroke="#cbd5df" stroke-width="2"/><rect x="215" y="275" width="265" height="230" rx="12" fill="#e9effb" stroke="#215ad2" stroke-width="2"/><rect x="174" y="283" width="40" height="214" rx="16" fill="#dfe6ef" stroke="#17212b" stroke-width="2"/><rect x="481" y="283" width="40" height="214" rx="16" fill="#dfe6ef" stroke="#17212b" stroke-width="2"/><path d="M181 300H207M488 300H514" fill="none" stroke="#17212b" stroke-width="2" stroke-linecap="round" stroke-linejoin="round"/><path d="M181 322H207M488 322H514" fill="none" stroke="#17212b" stroke-width="2" stroke-linecap="round" stroke-linejoin="round"/><path d="M181 344H207M488 344H514" fill="none" stroke="#17212b" stroke-width="2" stroke-linecap="round" stroke-linejoin="round"/><path d="M181 366H207M488 366H514" fill="none" stroke="#17212b" stroke-width="2" stroke-linecap="round" stroke-linejoin="round"/><path d="M181 388H207M488 388H514" fill="none" stroke="#17212b" stroke-width="2" stroke-linecap="round" stroke-linejoin="round"/><path d="M181 410H207M488 410H514" fill="none" stroke="#17212b" stroke-width="2" stroke-linecap="round" stroke-linejoin="round"/><path d="M181 432H207M488 432H514" fill="none" stroke="#17212b" stroke-width="2" stroke-linecap="round" stroke-linejoin="round"/><path d="M181 454H207M488 454H514" fill="none" stroke="#17212b" stroke-width="2" stroke-linecap="round" stroke-linejoin="round"/><path d="M181 476H207M488 476H514" fill="none" stroke="#17212b" stroke-width="2" stroke-linecap="round" stroke-linejoin="round"/><rect x="133" y="530" width="430" height="40" rx="16" fill="#eaf3f1" stroke="#14786f" stroke-width="2"/><path d="M244 504V529M451 504V529" fill="none" stroke="#17212b" stroke-width="4" stroke-linecap="round" stroke-linejoin="round"/><text x="259" y="355" font-size="28" fill="#17212b" font-weight="600">Chassis</text><text x="255" y="395" font-size="22" fill="#56616d" font-weight="400">Control + power</text><text x="102" y="251" font-size="18" fill="#56616d" font-weight="400">Functional top view</text><text x="183" y="601" font-size="22" fill="#14786f" font-weight="600">Dry-cleaning roller</text><text x="733" y="264" font-size="28" fill="#17212b" font-weight="600">Contact</text><text x="733" y="300" font-size="21" fill="#56616d" font-weight="400">Brush loading + surface</text><text x="733" y="374" font-size="28" fill="#17212b" font-weight="600">Traction</text><text x="733" y="410" font-size="21" fill="#56616d" font-weight="400">Track loading + resistance</text><text x="733" y="484" font-size="28" fill="#17212b" font-weight="600">Coverage</text><text x="733" y="520" font-size="21" fill="#56616d" font-weight="400">Reach + panel boundaries</text><path d="M56 650H1144" fill="none" stroke="#cbd5df" stroke-width="1" stroke-linecap="round" stroke-linejoin="round"/><text x="56" y="686" font-size="17" fill="#56616d" font-weight="400">FUNCTIONAL SCHEMATIC / Not to scale; numerical coverage and force results are modelled.</text></g></svg>